%TF.GenerationSoftware,KiCad,Pcbnew,7.0.5*%
%TF.CreationDate,2023-10-04T22:36:29-05:00*%
%TF.ProjectId,24V Regulator Breakout,32345620-5265-4677-956c-61746f722042,rev?*%
%TF.SameCoordinates,Original*%
%TF.FileFunction,Legend,Top*%
%TF.FilePolarity,Positive*%
%FSLAX46Y46*%
G04 Gerber Fmt 4.6, Leading zero omitted, Abs format (unit mm)*
G04 Created by KiCad (PCBNEW 7.0.5) date 2023-10-04 22:36:29*
%MOMM*%
%LPD*%
G01*
G04 APERTURE LIST*
%ADD10C,0.150000*%
%ADD11C,0.120000*%
G04 APERTURE END LIST*
D10*
X76647922Y-63893819D02*
X76981255Y-64893819D01*
X76981255Y-64893819D02*
X77314588Y-63893819D01*
X77647922Y-64893819D02*
X77647922Y-63893819D01*
X78124112Y-64893819D02*
X78124112Y-63893819D01*
X78124112Y-63893819D02*
X78695540Y-64893819D01*
X78695540Y-64893819D02*
X78695540Y-63893819D01*
X118462588Y-57083438D02*
X118367350Y-57035819D01*
X118367350Y-57035819D02*
X118224493Y-57035819D01*
X118224493Y-57035819D02*
X118081636Y-57083438D01*
X118081636Y-57083438D02*
X117986398Y-57178676D01*
X117986398Y-57178676D02*
X117938779Y-57273914D01*
X117938779Y-57273914D02*
X117891160Y-57464390D01*
X117891160Y-57464390D02*
X117891160Y-57607247D01*
X117891160Y-57607247D02*
X117938779Y-57797723D01*
X117938779Y-57797723D02*
X117986398Y-57892961D01*
X117986398Y-57892961D02*
X118081636Y-57988200D01*
X118081636Y-57988200D02*
X118224493Y-58035819D01*
X118224493Y-58035819D02*
X118319731Y-58035819D01*
X118319731Y-58035819D02*
X118462588Y-57988200D01*
X118462588Y-57988200D02*
X118510207Y-57940580D01*
X118510207Y-57940580D02*
X118510207Y-57607247D01*
X118510207Y-57607247D02*
X118319731Y-57607247D01*
X118938779Y-58035819D02*
X118938779Y-57035819D01*
X118938779Y-57035819D02*
X119510207Y-58035819D01*
X119510207Y-58035819D02*
X119510207Y-57035819D01*
X119986398Y-58035819D02*
X119986398Y-57035819D01*
X119986398Y-57035819D02*
X120224493Y-57035819D01*
X120224493Y-57035819D02*
X120367350Y-57083438D01*
X120367350Y-57083438D02*
X120462588Y-57178676D01*
X120462588Y-57178676D02*
X120510207Y-57273914D01*
X120510207Y-57273914D02*
X120557826Y-57464390D01*
X120557826Y-57464390D02*
X120557826Y-57607247D01*
X120557826Y-57607247D02*
X120510207Y-57797723D01*
X120510207Y-57797723D02*
X120462588Y-57892961D01*
X120462588Y-57892961D02*
X120367350Y-57988200D01*
X120367350Y-57988200D02*
X120224493Y-58035819D01*
X120224493Y-58035819D02*
X119986398Y-58035819D01*
X77314588Y-57083438D02*
X77219350Y-57035819D01*
X77219350Y-57035819D02*
X77076493Y-57035819D01*
X77076493Y-57035819D02*
X76933636Y-57083438D01*
X76933636Y-57083438D02*
X76838398Y-57178676D01*
X76838398Y-57178676D02*
X76790779Y-57273914D01*
X76790779Y-57273914D02*
X76743160Y-57464390D01*
X76743160Y-57464390D02*
X76743160Y-57607247D01*
X76743160Y-57607247D02*
X76790779Y-57797723D01*
X76790779Y-57797723D02*
X76838398Y-57892961D01*
X76838398Y-57892961D02*
X76933636Y-57988200D01*
X76933636Y-57988200D02*
X77076493Y-58035819D01*
X77076493Y-58035819D02*
X77171731Y-58035819D01*
X77171731Y-58035819D02*
X77314588Y-57988200D01*
X77314588Y-57988200D02*
X77362207Y-57940580D01*
X77362207Y-57940580D02*
X77362207Y-57607247D01*
X77362207Y-57607247D02*
X77171731Y-57607247D01*
X77790779Y-58035819D02*
X77790779Y-57035819D01*
X77790779Y-57035819D02*
X78362207Y-58035819D01*
X78362207Y-58035819D02*
X78362207Y-57035819D01*
X78838398Y-58035819D02*
X78838398Y-57035819D01*
X78838398Y-57035819D02*
X79076493Y-57035819D01*
X79076493Y-57035819D02*
X79219350Y-57083438D01*
X79219350Y-57083438D02*
X79314588Y-57178676D01*
X79314588Y-57178676D02*
X79362207Y-57273914D01*
X79362207Y-57273914D02*
X79409826Y-57464390D01*
X79409826Y-57464390D02*
X79409826Y-57607247D01*
X79409826Y-57607247D02*
X79362207Y-57797723D01*
X79362207Y-57797723D02*
X79314588Y-57892961D01*
X79314588Y-57892961D02*
X79219350Y-57988200D01*
X79219350Y-57988200D02*
X79076493Y-58035819D01*
X79076493Y-58035819D02*
X78838398Y-58035819D01*
X117033922Y-63893819D02*
X117367255Y-64893819D01*
X117367255Y-64893819D02*
X117700588Y-63893819D01*
X118224398Y-63893819D02*
X118414874Y-63893819D01*
X118414874Y-63893819D02*
X118510112Y-63941438D01*
X118510112Y-63941438D02*
X118605350Y-64036676D01*
X118605350Y-64036676D02*
X118652969Y-64227152D01*
X118652969Y-64227152D02*
X118652969Y-64560485D01*
X118652969Y-64560485D02*
X118605350Y-64750961D01*
X118605350Y-64750961D02*
X118510112Y-64846200D01*
X118510112Y-64846200D02*
X118414874Y-64893819D01*
X118414874Y-64893819D02*
X118224398Y-64893819D01*
X118224398Y-64893819D02*
X118129160Y-64846200D01*
X118129160Y-64846200D02*
X118033922Y-64750961D01*
X118033922Y-64750961D02*
X117986303Y-64560485D01*
X117986303Y-64560485D02*
X117986303Y-64227152D01*
X117986303Y-64227152D02*
X118033922Y-64036676D01*
X118033922Y-64036676D02*
X118129160Y-63941438D01*
X118129160Y-63941438D02*
X118224398Y-63893819D01*
X119081541Y-63893819D02*
X119081541Y-64703342D01*
X119081541Y-64703342D02*
X119129160Y-64798580D01*
X119129160Y-64798580D02*
X119176779Y-64846200D01*
X119176779Y-64846200D02*
X119272017Y-64893819D01*
X119272017Y-64893819D02*
X119462493Y-64893819D01*
X119462493Y-64893819D02*
X119557731Y-64846200D01*
X119557731Y-64846200D02*
X119605350Y-64798580D01*
X119605350Y-64798580D02*
X119652969Y-64703342D01*
X119652969Y-64703342D02*
X119652969Y-63893819D01*
X119986303Y-63893819D02*
X120557731Y-63893819D01*
X120272017Y-64893819D02*
X120272017Y-63893819D01*
%TO.C,U1*%
X78232095Y-47460819D02*
X78232095Y-48270342D01*
X78232095Y-48270342D02*
X78279714Y-48365580D01*
X78279714Y-48365580D02*
X78327333Y-48413200D01*
X78327333Y-48413200D02*
X78422571Y-48460819D01*
X78422571Y-48460819D02*
X78613047Y-48460819D01*
X78613047Y-48460819D02*
X78708285Y-48413200D01*
X78708285Y-48413200D02*
X78755904Y-48365580D01*
X78755904Y-48365580D02*
X78803523Y-48270342D01*
X78803523Y-48270342D02*
X78803523Y-47460819D01*
X79803523Y-48460819D02*
X79232095Y-48460819D01*
X79517809Y-48460819D02*
X79517809Y-47460819D01*
X79517809Y-47460819D02*
X79422571Y-47603676D01*
X79422571Y-47603676D02*
X79327333Y-47698914D01*
X79327333Y-47698914D02*
X79232095Y-47746533D01*
%TO.C,C2*%
X110667580Y-60872666D02*
X110715200Y-60920285D01*
X110715200Y-60920285D02*
X110762819Y-61063142D01*
X110762819Y-61063142D02*
X110762819Y-61158380D01*
X110762819Y-61158380D02*
X110715200Y-61301237D01*
X110715200Y-61301237D02*
X110619961Y-61396475D01*
X110619961Y-61396475D02*
X110524723Y-61444094D01*
X110524723Y-61444094D02*
X110334247Y-61491713D01*
X110334247Y-61491713D02*
X110191390Y-61491713D01*
X110191390Y-61491713D02*
X110000914Y-61444094D01*
X110000914Y-61444094D02*
X109905676Y-61396475D01*
X109905676Y-61396475D02*
X109810438Y-61301237D01*
X109810438Y-61301237D02*
X109762819Y-61158380D01*
X109762819Y-61158380D02*
X109762819Y-61063142D01*
X109762819Y-61063142D02*
X109810438Y-60920285D01*
X109810438Y-60920285D02*
X109858057Y-60872666D01*
X109858057Y-60491713D02*
X109810438Y-60444094D01*
X109810438Y-60444094D02*
X109762819Y-60348856D01*
X109762819Y-60348856D02*
X109762819Y-60110761D01*
X109762819Y-60110761D02*
X109810438Y-60015523D01*
X109810438Y-60015523D02*
X109858057Y-59967904D01*
X109858057Y-59967904D02*
X109953295Y-59920285D01*
X109953295Y-59920285D02*
X110048533Y-59920285D01*
X110048533Y-59920285D02*
X110191390Y-59967904D01*
X110191390Y-59967904D02*
X110762819Y-60539332D01*
X110762819Y-60539332D02*
X110762819Y-59920285D01*
%TO.C,C1*%
X117901580Y-61425554D02*
X117949200Y-61473173D01*
X117949200Y-61473173D02*
X117996819Y-61616030D01*
X117996819Y-61616030D02*
X117996819Y-61711268D01*
X117996819Y-61711268D02*
X117949200Y-61854125D01*
X117949200Y-61854125D02*
X117853961Y-61949363D01*
X117853961Y-61949363D02*
X117758723Y-61996982D01*
X117758723Y-61996982D02*
X117568247Y-62044601D01*
X117568247Y-62044601D02*
X117425390Y-62044601D01*
X117425390Y-62044601D02*
X117234914Y-61996982D01*
X117234914Y-61996982D02*
X117139676Y-61949363D01*
X117139676Y-61949363D02*
X117044438Y-61854125D01*
X117044438Y-61854125D02*
X116996819Y-61711268D01*
X116996819Y-61711268D02*
X116996819Y-61616030D01*
X116996819Y-61616030D02*
X117044438Y-61473173D01*
X117044438Y-61473173D02*
X117092057Y-61425554D01*
X117996819Y-60473173D02*
X117996819Y-61044601D01*
X117996819Y-60758887D02*
X116996819Y-60758887D01*
X116996819Y-60758887D02*
X117139676Y-60854125D01*
X117139676Y-60854125D02*
X117234914Y-60949363D01*
X117234914Y-60949363D02*
X117282533Y-61044601D01*
%TO.C,V4*%
X73868283Y-71120000D02*
G75*
G03*
X73868283Y-71120000I-4018283J0D01*
G01*
%TO.C,V1*%
X73868283Y-50800000D02*
G75*
G03*
X73868283Y-50800000I-4018283J0D01*
G01*
D11*
%TO.C,U1*%
X80010000Y-47752000D02*
X106426000Y-47752000D01*
X106426000Y-47752000D02*
X106426000Y-74168000D01*
X106426000Y-74168000D02*
X80010000Y-74168000D01*
X80010000Y-74168000D02*
X80010000Y-47752000D01*
D10*
%TO.C,V2*%
X131018283Y-71120000D02*
G75*
G03*
X131018283Y-71120000I-4018283J0D01*
G01*
D11*
%TO.C,C2*%
X109368000Y-59994748D02*
X109368000Y-61417252D01*
X107548000Y-59994748D02*
X107548000Y-61417252D01*
%TO.C,C1*%
X115267000Y-58454113D02*
X115267000Y-58954113D01*
X115517000Y-58704113D02*
X115017000Y-58704113D01*
X116372000Y-61258888D02*
X114832000Y-61258888D01*
X112752000Y-61258888D02*
X111212000Y-61258888D01*
X116372000Y-61298888D02*
X114832000Y-61298888D01*
X112752000Y-61298888D02*
X111212000Y-61298888D01*
X116371000Y-61338888D02*
X114832000Y-61338888D01*
X112752000Y-61338888D02*
X111213000Y-61338888D01*
X116370000Y-61378888D02*
X114832000Y-61378888D01*
X112752000Y-61378888D02*
X111214000Y-61378888D01*
X116368000Y-61418888D02*
X114832000Y-61418888D01*
X112752000Y-61418888D02*
X111216000Y-61418888D01*
X116365000Y-61458888D02*
X114832000Y-61458888D01*
X112752000Y-61458888D02*
X111219000Y-61458888D01*
X116361000Y-61498888D02*
X114832000Y-61498888D01*
X112752000Y-61498888D02*
X111223000Y-61498888D01*
X116357000Y-61538888D02*
X114832000Y-61538888D01*
X112752000Y-61538888D02*
X111227000Y-61538888D01*
X116353000Y-61578888D02*
X114832000Y-61578888D01*
X112752000Y-61578888D02*
X111231000Y-61578888D01*
X116348000Y-61618888D02*
X114832000Y-61618888D01*
X112752000Y-61618888D02*
X111236000Y-61618888D01*
X116342000Y-61658888D02*
X114832000Y-61658888D01*
X112752000Y-61658888D02*
X111242000Y-61658888D01*
X116335000Y-61698888D02*
X114832000Y-61698888D01*
X112752000Y-61698888D02*
X111249000Y-61698888D01*
X116328000Y-61738888D02*
X114832000Y-61738888D01*
X112752000Y-61738888D02*
X111256000Y-61738888D01*
X116320000Y-61778888D02*
X114832000Y-61778888D01*
X112752000Y-61778888D02*
X111264000Y-61778888D01*
X116312000Y-61818888D02*
X114832000Y-61818888D01*
X112752000Y-61818888D02*
X111272000Y-61818888D01*
X116303000Y-61858888D02*
X114832000Y-61858888D01*
X112752000Y-61858888D02*
X111281000Y-61858888D01*
X116293000Y-61898888D02*
X114832000Y-61898888D01*
X112752000Y-61898888D02*
X111291000Y-61898888D01*
X116283000Y-61938888D02*
X114832000Y-61938888D01*
X112752000Y-61938888D02*
X111301000Y-61938888D01*
X116272000Y-61979888D02*
X114832000Y-61979888D01*
X112752000Y-61979888D02*
X111312000Y-61979888D01*
X116260000Y-62019888D02*
X114832000Y-62019888D01*
X112752000Y-62019888D02*
X111324000Y-62019888D01*
X116247000Y-62059888D02*
X114832000Y-62059888D01*
X112752000Y-62059888D02*
X111337000Y-62059888D01*
X116234000Y-62099888D02*
X114832000Y-62099888D01*
X112752000Y-62099888D02*
X111350000Y-62099888D01*
X116220000Y-62139888D02*
X114832000Y-62139888D01*
X112752000Y-62139888D02*
X111364000Y-62139888D01*
X116206000Y-62179888D02*
X114832000Y-62179888D01*
X112752000Y-62179888D02*
X111378000Y-62179888D01*
X116190000Y-62219888D02*
X114832000Y-62219888D01*
X112752000Y-62219888D02*
X111394000Y-62219888D01*
X116174000Y-62259888D02*
X114832000Y-62259888D01*
X112752000Y-62259888D02*
X111410000Y-62259888D01*
X116157000Y-62299888D02*
X114832000Y-62299888D01*
X112752000Y-62299888D02*
X111427000Y-62299888D01*
X116140000Y-62339888D02*
X114832000Y-62339888D01*
X112752000Y-62339888D02*
X111444000Y-62339888D01*
X116121000Y-62379888D02*
X114832000Y-62379888D01*
X112752000Y-62379888D02*
X111463000Y-62379888D01*
X116102000Y-62419888D02*
X114832000Y-62419888D01*
X112752000Y-62419888D02*
X111482000Y-62419888D01*
X116082000Y-62459888D02*
X114832000Y-62459888D01*
X112752000Y-62459888D02*
X111502000Y-62459888D01*
X116060000Y-62499888D02*
X114832000Y-62499888D01*
X112752000Y-62499888D02*
X111524000Y-62499888D01*
X116039000Y-62539888D02*
X114832000Y-62539888D01*
X112752000Y-62539888D02*
X111545000Y-62539888D01*
X116016000Y-62579888D02*
X114832000Y-62579888D01*
X112752000Y-62579888D02*
X111568000Y-62579888D01*
X115992000Y-62619888D02*
X114832000Y-62619888D01*
X112752000Y-62619888D02*
X111592000Y-62619888D01*
X115967000Y-62659888D02*
X114832000Y-62659888D01*
X112752000Y-62659888D02*
X111617000Y-62659888D01*
X115941000Y-62699888D02*
X114832000Y-62699888D01*
X112752000Y-62699888D02*
X111643000Y-62699888D01*
X115914000Y-62739888D02*
X114832000Y-62739888D01*
X112752000Y-62739888D02*
X111670000Y-62739888D01*
X115887000Y-62779888D02*
X114832000Y-62779888D01*
X112752000Y-62779888D02*
X111697000Y-62779888D01*
X115857000Y-62819888D02*
X114832000Y-62819888D01*
X112752000Y-62819888D02*
X111727000Y-62819888D01*
X115827000Y-62859888D02*
X114832000Y-62859888D01*
X112752000Y-62859888D02*
X111757000Y-62859888D01*
X115796000Y-62899888D02*
X114832000Y-62899888D01*
X112752000Y-62899888D02*
X111788000Y-62899888D01*
X115763000Y-62939888D02*
X114832000Y-62939888D01*
X112752000Y-62939888D02*
X111821000Y-62939888D01*
X115729000Y-62979888D02*
X114832000Y-62979888D01*
X112752000Y-62979888D02*
X111855000Y-62979888D01*
X115693000Y-63019888D02*
X114832000Y-63019888D01*
X112752000Y-63019888D02*
X111891000Y-63019888D01*
X115656000Y-63059888D02*
X114832000Y-63059888D01*
X112752000Y-63059888D02*
X111928000Y-63059888D01*
X115618000Y-63099888D02*
X114832000Y-63099888D01*
X112752000Y-63099888D02*
X111966000Y-63099888D01*
X115577000Y-63139888D02*
X114832000Y-63139888D01*
X112752000Y-63139888D02*
X112007000Y-63139888D01*
X115535000Y-63179888D02*
X114832000Y-63179888D01*
X112752000Y-63179888D02*
X112049000Y-63179888D01*
X115491000Y-63219888D02*
X114832000Y-63219888D01*
X112752000Y-63219888D02*
X112093000Y-63219888D01*
X115445000Y-63259888D02*
X114832000Y-63259888D01*
X112752000Y-63259888D02*
X112139000Y-63259888D01*
X115397000Y-63299888D02*
X112187000Y-63299888D01*
X115346000Y-63339888D02*
X112238000Y-63339888D01*
X115292000Y-63379888D02*
X112292000Y-63379888D01*
X115235000Y-63419888D02*
X112349000Y-63419888D01*
X115175000Y-63459888D02*
X112409000Y-63459888D01*
X115111000Y-63499888D02*
X112473000Y-63499888D01*
X115043000Y-63539888D02*
X112541000Y-63539888D01*
X114970000Y-63579888D02*
X112614000Y-63579888D01*
X114890000Y-63619888D02*
X112694000Y-63619888D01*
X114803000Y-63659888D02*
X112781000Y-63659888D01*
X114707000Y-63699888D02*
X112877000Y-63699888D01*
X114597000Y-63739888D02*
X112987000Y-63739888D01*
X114469000Y-63779888D02*
X113115000Y-63779888D01*
X114310000Y-63819888D02*
X113274000Y-63819888D01*
X114076000Y-63859888D02*
X113508000Y-63859888D01*
X116412000Y-61258888D02*
G75*
G03*
X116412000Y-61258888I-2620000J0D01*
G01*
D10*
%TO.C,Conn1*%
X132842000Y-56515000D02*
X132842000Y-65405000D01*
X120904000Y-56515000D02*
X132842000Y-56515000D01*
X120904000Y-56515000D02*
X120904000Y-65405000D01*
X118364000Y-58420000D02*
X120904000Y-58420000D01*
X120904000Y-63500000D02*
X118364000Y-63500000D01*
X118364000Y-63500000D02*
X118364000Y-58420000D01*
X120904000Y-65405000D02*
X132842000Y-65405000D01*
%TO.C,Conn2*%
X64389000Y-65405000D02*
X64389000Y-56515000D01*
X76327000Y-65405000D02*
X64389000Y-65405000D01*
X76327000Y-65405000D02*
X76327000Y-56515000D01*
X78867000Y-63500000D02*
X76327000Y-63500000D01*
X76327000Y-58420000D02*
X78867000Y-58420000D01*
X78867000Y-58420000D02*
X78867000Y-63500000D01*
X76327000Y-56515000D02*
X64389000Y-56515000D01*
%TO.C,V3*%
X131018283Y-50800000D02*
G75*
G03*
X131018283Y-50800000I-4018283J0D01*
G01*
%TD*%
M02*
