%TF.GenerationSoftware,KiCad,Pcbnew,7.0.5*%
%TF.CreationDate,2023-10-04T22:19:23-05:00*%
%TF.ProjectId,Current Sensing Breakout,43757272-656e-4742-9053-656e73696e67,rev?*%
%TF.SameCoordinates,Original*%
%TF.FileFunction,Copper,L2,Bot*%
%TF.FilePolarity,Positive*%
%FSLAX46Y46*%
G04 Gerber Fmt 4.6, Leading zero omitted, Abs format (unit mm)*
G04 Created by KiCad (PCBNEW 7.0.5) date 2023-10-04 22:19:23*
%MOMM*%
%LPD*%
G01*
G04 APERTURE LIST*
%TA.AperFunction,ComponentPad*%
%ADD10C,1.524000*%
%TD*%
%TA.AperFunction,ComponentPad*%
%ADD11O,5.100000X3.000000*%
%TD*%
G04 APERTURE END LIST*
D10*
%TO.P,Conn3,1*%
%TO.N,Net-(U1-VCC)*%
X65278000Y-48133000D03*
%TO.P,Conn3,2*%
%TO.N,GND*%
X65278000Y-50673000D03*
%TO.P,Conn3,3*%
%TO.N,Net-(U1-VIOUT)*%
X65278000Y-53213000D03*
%TD*%
D11*
%TO.P,Conn1,1,GND*%
%TO.N,GND*%
X61849000Y-44704000D03*
%TO.P,Conn1,4,PV+*%
%TO.N,Net-(Conn1D-PV+)*%
X53975000Y-44704000D03*
%TD*%
%TO.P,Conn2,1,GND*%
%TO.N,GND*%
X61849000Y-56642000D03*
%TO.P,Conn2,4,PV+*%
%TO.N,Net-(Conn2D-PV+)*%
X53975000Y-56642000D03*
%TD*%
%TA.AperFunction,Conductor*%
%TO.N,GND*%
G36*
X76142539Y-25420185D02*
G01*
X76188294Y-25472989D01*
X76199500Y-25524500D01*
X76199500Y-76075500D01*
X76179815Y-76142539D01*
X76127011Y-76188294D01*
X76075500Y-76199500D01*
X48384500Y-76199500D01*
X48317461Y-76179815D01*
X48271706Y-76127011D01*
X48260500Y-76075500D01*
X48260500Y-56642001D01*
X50919390Y-56642001D01*
X50939804Y-56927433D01*
X51000628Y-57207037D01*
X51100635Y-57475166D01*
X51237770Y-57726309D01*
X51237775Y-57726317D01*
X51409254Y-57955387D01*
X51409270Y-57955405D01*
X51611594Y-58157729D01*
X51611612Y-58157745D01*
X51840682Y-58329224D01*
X51840690Y-58329229D01*
X52091833Y-58466364D01*
X52091832Y-58466364D01*
X52091836Y-58466365D01*
X52091839Y-58466367D01*
X52359954Y-58566369D01*
X52359960Y-58566370D01*
X52359962Y-58566371D01*
X52639566Y-58627195D01*
X52639568Y-58627195D01*
X52639572Y-58627196D01*
X52853552Y-58642500D01*
X55096448Y-58642500D01*
X55310428Y-58627196D01*
X55590046Y-58566369D01*
X55858161Y-58466367D01*
X56109315Y-58329226D01*
X56338395Y-58157739D01*
X56540739Y-57955395D01*
X56712226Y-57726315D01*
X56849367Y-57475161D01*
X56949369Y-57207046D01*
X57010196Y-56927428D01*
X57030610Y-56642000D01*
X57010196Y-56356572D01*
X56994532Y-56284567D01*
X56949371Y-56076962D01*
X56949370Y-56076960D01*
X56949369Y-56076954D01*
X56849367Y-55808839D01*
X56833615Y-55779992D01*
X56712229Y-55557690D01*
X56712224Y-55557682D01*
X56540745Y-55328612D01*
X56540729Y-55328594D01*
X56338405Y-55126270D01*
X56338387Y-55126254D01*
X56109317Y-54954775D01*
X56109309Y-54954770D01*
X55858166Y-54817635D01*
X55858167Y-54817635D01*
X55750914Y-54777632D01*
X55590046Y-54717631D01*
X55590043Y-54717630D01*
X55590037Y-54717628D01*
X55310433Y-54656804D01*
X55096450Y-54641500D01*
X55096448Y-54641500D01*
X52853552Y-54641500D01*
X52853549Y-54641500D01*
X52639566Y-54656804D01*
X52359962Y-54717628D01*
X52091833Y-54817635D01*
X51840690Y-54954770D01*
X51840682Y-54954775D01*
X51611612Y-55126254D01*
X51611594Y-55126270D01*
X51409270Y-55328594D01*
X51409254Y-55328612D01*
X51237775Y-55557682D01*
X51237770Y-55557690D01*
X51100635Y-55808833D01*
X51000628Y-56076962D01*
X50939804Y-56356566D01*
X50919390Y-56641998D01*
X50919390Y-56642001D01*
X48260500Y-56642001D01*
X48260500Y-54483001D01*
X71933454Y-54483001D01*
X71953613Y-54764866D01*
X71994926Y-54954775D01*
X72013680Y-55040984D01*
X72045484Y-55126254D01*
X72112432Y-55305750D01*
X72112434Y-55305754D01*
X72247855Y-55553758D01*
X72247860Y-55553766D01*
X72417196Y-55779974D01*
X72417212Y-55779992D01*
X72617007Y-55979787D01*
X72617025Y-55979803D01*
X72843233Y-56149139D01*
X72843241Y-56149144D01*
X73091245Y-56284565D01*
X73091249Y-56284567D01*
X73091251Y-56284568D01*
X73356016Y-56383320D01*
X73494077Y-56413353D01*
X73632133Y-56443386D01*
X73632135Y-56443386D01*
X73632139Y-56443387D01*
X73843447Y-56458500D01*
X73984553Y-56458500D01*
X74195861Y-56443387D01*
X74471984Y-56383320D01*
X74736749Y-56284568D01*
X74984764Y-56149141D01*
X75210982Y-55979797D01*
X75410797Y-55779982D01*
X75580141Y-55553764D01*
X75715568Y-55305749D01*
X75814320Y-55040984D01*
X75874387Y-54764861D01*
X75894546Y-54483000D01*
X75892977Y-54461069D01*
X75882211Y-54310531D01*
X75874387Y-54201139D01*
X75870621Y-54183829D01*
X75814321Y-53925022D01*
X75814320Y-53925016D01*
X75715568Y-53660251D01*
X75708029Y-53646445D01*
X75580144Y-53412241D01*
X75580139Y-53412233D01*
X75410803Y-53186025D01*
X75410787Y-53186007D01*
X75210992Y-52986212D01*
X75210974Y-52986196D01*
X74984766Y-52816860D01*
X74984758Y-52816855D01*
X74736754Y-52681434D01*
X74736750Y-52681432D01*
X74636372Y-52643993D01*
X74471984Y-52582680D01*
X74471980Y-52582679D01*
X74471977Y-52582678D01*
X74195866Y-52522613D01*
X73984555Y-52507500D01*
X73984553Y-52507500D01*
X73843447Y-52507500D01*
X73843444Y-52507500D01*
X73632133Y-52522613D01*
X73356022Y-52582678D01*
X73356017Y-52582679D01*
X73356016Y-52582680D01*
X73292003Y-52606555D01*
X73091249Y-52681432D01*
X73091245Y-52681434D01*
X72843241Y-52816855D01*
X72843233Y-52816860D01*
X72617025Y-52986196D01*
X72617007Y-52986212D01*
X72417212Y-53186007D01*
X72417196Y-53186025D01*
X72247860Y-53412233D01*
X72247855Y-53412241D01*
X72112434Y-53660245D01*
X72112432Y-53660249D01*
X72013678Y-53925022D01*
X71953613Y-54201133D01*
X71933454Y-54482998D01*
X71933454Y-54483001D01*
X48260500Y-54483001D01*
X48260500Y-53213002D01*
X64010677Y-53213002D01*
X64029929Y-53433062D01*
X64029930Y-53433070D01*
X64087104Y-53646445D01*
X64087105Y-53646447D01*
X64087106Y-53646450D01*
X64180465Y-53846661D01*
X64180466Y-53846662D01*
X64180468Y-53846666D01*
X64307170Y-54027615D01*
X64307175Y-54027621D01*
X64463378Y-54183824D01*
X64463384Y-54183829D01*
X64644333Y-54310531D01*
X64644335Y-54310532D01*
X64644338Y-54310534D01*
X64844550Y-54403894D01*
X65057932Y-54461070D01*
X65215123Y-54474822D01*
X65277998Y-54480323D01*
X65278000Y-54480323D01*
X65278002Y-54480323D01*
X65333017Y-54475509D01*
X65498068Y-54461070D01*
X65711450Y-54403894D01*
X65911662Y-54310534D01*
X66092620Y-54183826D01*
X66248826Y-54027620D01*
X66375534Y-53846662D01*
X66468894Y-53646450D01*
X66526070Y-53433068D01*
X66545323Y-53213000D01*
X66542962Y-53186018D01*
X66526070Y-52992937D01*
X66526070Y-52992932D01*
X66468894Y-52779550D01*
X66375534Y-52579339D01*
X66248826Y-52398380D01*
X66092620Y-52242174D01*
X66092616Y-52242171D01*
X66092615Y-52242170D01*
X65911666Y-52115468D01*
X65911662Y-52115466D01*
X65911660Y-52115465D01*
X65711450Y-52022106D01*
X65711447Y-52022105D01*
X65711445Y-52022104D01*
X65498070Y-51964930D01*
X65498062Y-51964929D01*
X65278002Y-51945677D01*
X65277998Y-51945677D01*
X65057937Y-51964929D01*
X65057929Y-51964930D01*
X64844554Y-52022104D01*
X64844548Y-52022107D01*
X64644340Y-52115465D01*
X64644338Y-52115466D01*
X64463377Y-52242175D01*
X64307175Y-52398377D01*
X64180466Y-52579338D01*
X64180465Y-52579340D01*
X64087107Y-52779548D01*
X64087104Y-52779554D01*
X64029930Y-52992929D01*
X64029929Y-52992937D01*
X64010677Y-53212997D01*
X64010677Y-53213002D01*
X48260500Y-53213002D01*
X48260500Y-48133002D01*
X64010677Y-48133002D01*
X64029929Y-48353062D01*
X64029930Y-48353070D01*
X64087104Y-48566445D01*
X64087105Y-48566447D01*
X64087106Y-48566450D01*
X64132858Y-48664565D01*
X64180466Y-48766662D01*
X64180468Y-48766666D01*
X64307170Y-48947615D01*
X64307175Y-48947621D01*
X64463378Y-49103824D01*
X64463384Y-49103829D01*
X64644333Y-49230531D01*
X64644335Y-49230532D01*
X64644338Y-49230534D01*
X64844550Y-49323894D01*
X65057932Y-49381070D01*
X65215123Y-49394822D01*
X65277998Y-49400323D01*
X65278000Y-49400323D01*
X65278002Y-49400323D01*
X65333017Y-49395509D01*
X65498068Y-49381070D01*
X65711450Y-49323894D01*
X65911662Y-49230534D01*
X66092620Y-49103826D01*
X66248826Y-48947620D01*
X66375534Y-48766662D01*
X66468894Y-48566450D01*
X66526070Y-48353068D01*
X66542962Y-48159992D01*
X66545323Y-48133002D01*
X66545323Y-48132997D01*
X66538103Y-48050474D01*
X66526070Y-47912932D01*
X66468894Y-47699550D01*
X66375534Y-47499339D01*
X66248826Y-47318380D01*
X66092620Y-47162174D01*
X66092616Y-47162171D01*
X66092615Y-47162170D01*
X65911666Y-47035468D01*
X65911662Y-47035466D01*
X65911660Y-47035465D01*
X65711450Y-46942106D01*
X65711447Y-46942105D01*
X65711445Y-46942104D01*
X65498070Y-46884930D01*
X65498062Y-46884929D01*
X65278002Y-46865677D01*
X65277998Y-46865677D01*
X65057937Y-46884929D01*
X65057929Y-46884930D01*
X64844554Y-46942104D01*
X64844548Y-46942107D01*
X64644340Y-47035465D01*
X64644338Y-47035466D01*
X64463377Y-47162175D01*
X64307175Y-47318377D01*
X64180466Y-47499338D01*
X64180465Y-47499340D01*
X64087107Y-47699548D01*
X64087104Y-47699554D01*
X64029930Y-47912929D01*
X64029929Y-47912937D01*
X64010677Y-48132997D01*
X64010677Y-48133002D01*
X48260500Y-48133002D01*
X48260500Y-46863001D01*
X71933454Y-46863001D01*
X71953613Y-47144866D01*
X72013678Y-47420977D01*
X72013680Y-47420984D01*
X72074993Y-47585372D01*
X72112432Y-47685750D01*
X72112434Y-47685754D01*
X72247855Y-47933758D01*
X72247860Y-47933766D01*
X72417196Y-48159974D01*
X72417212Y-48159992D01*
X72617007Y-48359787D01*
X72617025Y-48359803D01*
X72843233Y-48529139D01*
X72843241Y-48529144D01*
X73091245Y-48664565D01*
X73091249Y-48664567D01*
X73091251Y-48664568D01*
X73356016Y-48763320D01*
X73494077Y-48793353D01*
X73632133Y-48823386D01*
X73632135Y-48823386D01*
X73632139Y-48823387D01*
X73843447Y-48838500D01*
X73984553Y-48838500D01*
X74195861Y-48823387D01*
X74471984Y-48763320D01*
X74736749Y-48664568D01*
X74984764Y-48529141D01*
X75210982Y-48359797D01*
X75410797Y-48159982D01*
X75580141Y-47933764D01*
X75715568Y-47685749D01*
X75814320Y-47420984D01*
X75874387Y-47144861D01*
X75894546Y-46863000D01*
X75874387Y-46581139D01*
X75862906Y-46528364D01*
X75844353Y-46443077D01*
X75814320Y-46305016D01*
X75715568Y-46040251D01*
X75703083Y-46017387D01*
X75580144Y-45792241D01*
X75580139Y-45792233D01*
X75410803Y-45566025D01*
X75410787Y-45566007D01*
X75210992Y-45366212D01*
X75210974Y-45366196D01*
X74984766Y-45196860D01*
X74984758Y-45196855D01*
X74736754Y-45061434D01*
X74736750Y-45061432D01*
X74636372Y-45023993D01*
X74471984Y-44962680D01*
X74471980Y-44962679D01*
X74471977Y-44962678D01*
X74195866Y-44902613D01*
X73984555Y-44887500D01*
X73984553Y-44887500D01*
X73843447Y-44887500D01*
X73843444Y-44887500D01*
X73632133Y-44902613D01*
X73356022Y-44962678D01*
X73356017Y-44962679D01*
X73356016Y-44962680D01*
X73292003Y-44986555D01*
X73091249Y-45061432D01*
X73091245Y-45061434D01*
X72843241Y-45196855D01*
X72843233Y-45196860D01*
X72617025Y-45366196D01*
X72617007Y-45366212D01*
X72417212Y-45566007D01*
X72417196Y-45566025D01*
X72247860Y-45792233D01*
X72247855Y-45792241D01*
X72112434Y-46040245D01*
X72112432Y-46040249D01*
X72013678Y-46305022D01*
X71953613Y-46581133D01*
X71933454Y-46862998D01*
X71933454Y-46863001D01*
X48260500Y-46863001D01*
X48260500Y-44704001D01*
X50919390Y-44704001D01*
X50939804Y-44989433D01*
X51000628Y-45269037D01*
X51100635Y-45537166D01*
X51237770Y-45788309D01*
X51237775Y-45788317D01*
X51409254Y-46017387D01*
X51409270Y-46017405D01*
X51611594Y-46219729D01*
X51611612Y-46219745D01*
X51840682Y-46391224D01*
X51840690Y-46391229D01*
X52091833Y-46528364D01*
X52091832Y-46528364D01*
X52091836Y-46528365D01*
X52091839Y-46528367D01*
X52359954Y-46628369D01*
X52359960Y-46628370D01*
X52359962Y-46628371D01*
X52639566Y-46689195D01*
X52639568Y-46689195D01*
X52639572Y-46689196D01*
X52853552Y-46704500D01*
X55096448Y-46704500D01*
X55310428Y-46689196D01*
X55590046Y-46628369D01*
X55858161Y-46528367D01*
X56109315Y-46391226D01*
X56338395Y-46219739D01*
X56540739Y-46017395D01*
X56712226Y-45788315D01*
X56849367Y-45537161D01*
X56949369Y-45269046D01*
X57010196Y-44989428D01*
X57030610Y-44704000D01*
X57010196Y-44418572D01*
X56949369Y-44138954D01*
X56849367Y-43870839D01*
X56712226Y-43619685D01*
X56712224Y-43619682D01*
X56540745Y-43390612D01*
X56540729Y-43390594D01*
X56338405Y-43188270D01*
X56338387Y-43188254D01*
X56109317Y-43016775D01*
X56109309Y-43016770D01*
X55858166Y-42879635D01*
X55858167Y-42879635D01*
X55750915Y-42839632D01*
X55590046Y-42779631D01*
X55590043Y-42779630D01*
X55590037Y-42779628D01*
X55310433Y-42718804D01*
X55096450Y-42703500D01*
X55096448Y-42703500D01*
X52853552Y-42703500D01*
X52853549Y-42703500D01*
X52639566Y-42718804D01*
X52359962Y-42779628D01*
X52091833Y-42879635D01*
X51840690Y-43016770D01*
X51840682Y-43016775D01*
X51611612Y-43188254D01*
X51611594Y-43188270D01*
X51409270Y-43390594D01*
X51409254Y-43390612D01*
X51237775Y-43619682D01*
X51237770Y-43619690D01*
X51100635Y-43870833D01*
X51000628Y-44138962D01*
X50939804Y-44418566D01*
X50919390Y-44703998D01*
X50919390Y-44704001D01*
X48260500Y-44704001D01*
X48260500Y-25524500D01*
X48280185Y-25457461D01*
X48332989Y-25411706D01*
X48384500Y-25400500D01*
X76075500Y-25400500D01*
X76142539Y-25420185D01*
G37*
%TD.AperFunction*%
%TD*%
M02*
