%TF.GenerationSoftware,KiCad,Pcbnew,7.0.5*%
%TF.CreationDate,2023-10-04T22:19:23-05:00*%
%TF.ProjectId,Current Sensing Breakout,43757272-656e-4742-9053-656e73696e67,rev?*%
%TF.SameCoordinates,Original*%
%TF.FileFunction,Legend,Top*%
%TF.FilePolarity,Positive*%
%FSLAX46Y46*%
G04 Gerber Fmt 4.6, Leading zero omitted, Abs format (unit mm)*
G04 Created by KiCad (PCBNEW 7.0.5) date 2023-10-04 22:19:23*
%MOMM*%
%LPD*%
G01*
G04 APERTURE LIST*
%ADD10C,0.150000*%
%ADD11C,0.120000*%
G04 APERTURE END LIST*
D10*
X65163819Y-46240458D02*
X65163819Y-45621411D01*
X65163819Y-45621411D02*
X65544771Y-45954744D01*
X65544771Y-45954744D02*
X65544771Y-45811887D01*
X65544771Y-45811887D02*
X65592390Y-45716649D01*
X65592390Y-45716649D02*
X65640009Y-45669030D01*
X65640009Y-45669030D02*
X65735247Y-45621411D01*
X65735247Y-45621411D02*
X65973342Y-45621411D01*
X65973342Y-45621411D02*
X66068580Y-45669030D01*
X66068580Y-45669030D02*
X66116200Y-45716649D01*
X66116200Y-45716649D02*
X66163819Y-45811887D01*
X66163819Y-45811887D02*
X66163819Y-46097601D01*
X66163819Y-46097601D02*
X66116200Y-46192839D01*
X66116200Y-46192839D02*
X66068580Y-46240458D01*
X65163819Y-45335696D02*
X66163819Y-45002363D01*
X66163819Y-45002363D02*
X65163819Y-44669030D01*
X65163819Y-44430934D02*
X65163819Y-43811887D01*
X65163819Y-43811887D02*
X65544771Y-44145220D01*
X65544771Y-44145220D02*
X65544771Y-44002363D01*
X65544771Y-44002363D02*
X65592390Y-43907125D01*
X65592390Y-43907125D02*
X65640009Y-43859506D01*
X65640009Y-43859506D02*
X65735247Y-43811887D01*
X65735247Y-43811887D02*
X65973342Y-43811887D01*
X65973342Y-43811887D02*
X66068580Y-43859506D01*
X66068580Y-43859506D02*
X66116200Y-43907125D01*
X66116200Y-43907125D02*
X66163819Y-44002363D01*
X66163819Y-44002363D02*
X66163819Y-44288077D01*
X66163819Y-44288077D02*
X66116200Y-44383315D01*
X66116200Y-44383315D02*
X66068580Y-44430934D01*
X49669819Y-46034077D02*
X50669819Y-45700744D01*
X50669819Y-45700744D02*
X49669819Y-45367411D01*
X50765057Y-45272173D02*
X50765057Y-44510268D01*
X50669819Y-44272172D02*
X49669819Y-44272172D01*
X50669819Y-43795982D02*
X49669819Y-43795982D01*
X49669819Y-43795982D02*
X50669819Y-43224554D01*
X50669819Y-43224554D02*
X49669819Y-43224554D01*
X49669819Y-58734077D02*
X50669819Y-58400744D01*
X50669819Y-58400744D02*
X49669819Y-58067411D01*
X50765057Y-57972173D02*
X50765057Y-57210268D01*
X49669819Y-56781696D02*
X49669819Y-56591220D01*
X49669819Y-56591220D02*
X49717438Y-56495982D01*
X49717438Y-56495982D02*
X49812676Y-56400744D01*
X49812676Y-56400744D02*
X50003152Y-56353125D01*
X50003152Y-56353125D02*
X50336485Y-56353125D01*
X50336485Y-56353125D02*
X50526961Y-56400744D01*
X50526961Y-56400744D02*
X50622200Y-56495982D01*
X50622200Y-56495982D02*
X50669819Y-56591220D01*
X50669819Y-56591220D02*
X50669819Y-56781696D01*
X50669819Y-56781696D02*
X50622200Y-56876934D01*
X50622200Y-56876934D02*
X50526961Y-56972172D01*
X50526961Y-56972172D02*
X50336485Y-57019791D01*
X50336485Y-57019791D02*
X50003152Y-57019791D01*
X50003152Y-57019791D02*
X49812676Y-56972172D01*
X49812676Y-56972172D02*
X49717438Y-56876934D01*
X49717438Y-56876934D02*
X49669819Y-56781696D01*
X49669819Y-55924553D02*
X50479342Y-55924553D01*
X50479342Y-55924553D02*
X50574580Y-55876934D01*
X50574580Y-55876934D02*
X50622200Y-55829315D01*
X50622200Y-55829315D02*
X50669819Y-55734077D01*
X50669819Y-55734077D02*
X50669819Y-55543601D01*
X50669819Y-55543601D02*
X50622200Y-55448363D01*
X50622200Y-55448363D02*
X50574580Y-55400744D01*
X50574580Y-55400744D02*
X50479342Y-55353125D01*
X50479342Y-55353125D02*
X49669819Y-55353125D01*
X49669819Y-55019791D02*
X49669819Y-54448363D01*
X50669819Y-54734077D02*
X49669819Y-54734077D01*
X66163819Y-58591220D02*
X65163819Y-58591220D01*
X65163819Y-58591220D02*
X65878104Y-58257887D01*
X65878104Y-58257887D02*
X65163819Y-57924554D01*
X65163819Y-57924554D02*
X66163819Y-57924554D01*
X65640009Y-57448363D02*
X65640009Y-57115030D01*
X66163819Y-56972173D02*
X66163819Y-57448363D01*
X66163819Y-57448363D02*
X65163819Y-57448363D01*
X65163819Y-57448363D02*
X65163819Y-56972173D01*
X65878104Y-56591220D02*
X65878104Y-56115030D01*
X66163819Y-56686458D02*
X65163819Y-56353125D01*
X65163819Y-56353125D02*
X66163819Y-56019792D01*
X66116200Y-55734077D02*
X66163819Y-55591220D01*
X66163819Y-55591220D02*
X66163819Y-55353125D01*
X66163819Y-55353125D02*
X66116200Y-55257887D01*
X66116200Y-55257887D02*
X66068580Y-55210268D01*
X66068580Y-55210268D02*
X65973342Y-55162649D01*
X65973342Y-55162649D02*
X65878104Y-55162649D01*
X65878104Y-55162649D02*
X65782866Y-55210268D01*
X65782866Y-55210268D02*
X65735247Y-55257887D01*
X65735247Y-55257887D02*
X65687628Y-55353125D01*
X65687628Y-55353125D02*
X65640009Y-55543601D01*
X65640009Y-55543601D02*
X65592390Y-55638839D01*
X65592390Y-55638839D02*
X65544771Y-55686458D01*
X65544771Y-55686458D02*
X65449533Y-55734077D01*
X65449533Y-55734077D02*
X65354295Y-55734077D01*
X65354295Y-55734077D02*
X65259057Y-55686458D01*
X65259057Y-55686458D02*
X65211438Y-55638839D01*
X65211438Y-55638839D02*
X65163819Y-55543601D01*
X65163819Y-55543601D02*
X65163819Y-55305506D01*
X65163819Y-55305506D02*
X65211438Y-55162649D01*
%TO.C,C1*%
X61446580Y-52998666D02*
X61494200Y-53046285D01*
X61494200Y-53046285D02*
X61541819Y-53189142D01*
X61541819Y-53189142D02*
X61541819Y-53284380D01*
X61541819Y-53284380D02*
X61494200Y-53427237D01*
X61494200Y-53427237D02*
X61398961Y-53522475D01*
X61398961Y-53522475D02*
X61303723Y-53570094D01*
X61303723Y-53570094D02*
X61113247Y-53617713D01*
X61113247Y-53617713D02*
X60970390Y-53617713D01*
X60970390Y-53617713D02*
X60779914Y-53570094D01*
X60779914Y-53570094D02*
X60684676Y-53522475D01*
X60684676Y-53522475D02*
X60589438Y-53427237D01*
X60589438Y-53427237D02*
X60541819Y-53284380D01*
X60541819Y-53284380D02*
X60541819Y-53189142D01*
X60541819Y-53189142D02*
X60589438Y-53046285D01*
X60589438Y-53046285D02*
X60637057Y-52998666D01*
X61541819Y-52046285D02*
X61541819Y-52617713D01*
X61541819Y-52331999D02*
X60541819Y-52331999D01*
X60541819Y-52331999D02*
X60684676Y-52427237D01*
X60684676Y-52427237D02*
X60779914Y-52522475D01*
X60779914Y-52522475D02*
X60827533Y-52617713D01*
%TO.C,C2*%
X61413580Y-48680666D02*
X61461200Y-48728285D01*
X61461200Y-48728285D02*
X61508819Y-48871142D01*
X61508819Y-48871142D02*
X61508819Y-48966380D01*
X61508819Y-48966380D02*
X61461200Y-49109237D01*
X61461200Y-49109237D02*
X61365961Y-49204475D01*
X61365961Y-49204475D02*
X61270723Y-49252094D01*
X61270723Y-49252094D02*
X61080247Y-49299713D01*
X61080247Y-49299713D02*
X60937390Y-49299713D01*
X60937390Y-49299713D02*
X60746914Y-49252094D01*
X60746914Y-49252094D02*
X60651676Y-49204475D01*
X60651676Y-49204475D02*
X60556438Y-49109237D01*
X60556438Y-49109237D02*
X60508819Y-48966380D01*
X60508819Y-48966380D02*
X60508819Y-48871142D01*
X60508819Y-48871142D02*
X60556438Y-48728285D01*
X60556438Y-48728285D02*
X60604057Y-48680666D01*
X60604057Y-48299713D02*
X60556438Y-48252094D01*
X60556438Y-48252094D02*
X60508819Y-48156856D01*
X60508819Y-48156856D02*
X60508819Y-47918761D01*
X60508819Y-47918761D02*
X60556438Y-47823523D01*
X60556438Y-47823523D02*
X60604057Y-47775904D01*
X60604057Y-47775904D02*
X60699295Y-47728285D01*
X60699295Y-47728285D02*
X60794533Y-47728285D01*
X60794533Y-47728285D02*
X60937390Y-47775904D01*
X60937390Y-47775904D02*
X61508819Y-48347332D01*
X61508819Y-48347332D02*
X61508819Y-47728285D01*
%TO.C,U1*%
X55880095Y-47362819D02*
X55880095Y-48172342D01*
X55880095Y-48172342D02*
X55927714Y-48267580D01*
X55927714Y-48267580D02*
X55975333Y-48315200D01*
X55975333Y-48315200D02*
X56070571Y-48362819D01*
X56070571Y-48362819D02*
X56261047Y-48362819D01*
X56261047Y-48362819D02*
X56356285Y-48315200D01*
X56356285Y-48315200D02*
X56403904Y-48267580D01*
X56403904Y-48267580D02*
X56451523Y-48172342D01*
X56451523Y-48172342D02*
X56451523Y-47362819D01*
X57451523Y-48362819D02*
X56880095Y-48362819D01*
X57165809Y-48362819D02*
X57165809Y-47362819D01*
X57165809Y-47362819D02*
X57070571Y-47505676D01*
X57070571Y-47505676D02*
X56975333Y-47600914D01*
X56975333Y-47600914D02*
X56880095Y-47648533D01*
%TO.C,Conn1*%
X49258580Y-40502409D02*
X49306200Y-40550028D01*
X49306200Y-40550028D02*
X49353819Y-40692885D01*
X49353819Y-40692885D02*
X49353819Y-40788123D01*
X49353819Y-40788123D02*
X49306200Y-40930980D01*
X49306200Y-40930980D02*
X49210961Y-41026218D01*
X49210961Y-41026218D02*
X49115723Y-41073837D01*
X49115723Y-41073837D02*
X48925247Y-41121456D01*
X48925247Y-41121456D02*
X48782390Y-41121456D01*
X48782390Y-41121456D02*
X48591914Y-41073837D01*
X48591914Y-41073837D02*
X48496676Y-41026218D01*
X48496676Y-41026218D02*
X48401438Y-40930980D01*
X48401438Y-40930980D02*
X48353819Y-40788123D01*
X48353819Y-40788123D02*
X48353819Y-40692885D01*
X48353819Y-40692885D02*
X48401438Y-40550028D01*
X48401438Y-40550028D02*
X48449057Y-40502409D01*
X49353819Y-39930980D02*
X49306200Y-40026218D01*
X49306200Y-40026218D02*
X49258580Y-40073837D01*
X49258580Y-40073837D02*
X49163342Y-40121456D01*
X49163342Y-40121456D02*
X48877628Y-40121456D01*
X48877628Y-40121456D02*
X48782390Y-40073837D01*
X48782390Y-40073837D02*
X48734771Y-40026218D01*
X48734771Y-40026218D02*
X48687152Y-39930980D01*
X48687152Y-39930980D02*
X48687152Y-39788123D01*
X48687152Y-39788123D02*
X48734771Y-39692885D01*
X48734771Y-39692885D02*
X48782390Y-39645266D01*
X48782390Y-39645266D02*
X48877628Y-39597647D01*
X48877628Y-39597647D02*
X49163342Y-39597647D01*
X49163342Y-39597647D02*
X49258580Y-39645266D01*
X49258580Y-39645266D02*
X49306200Y-39692885D01*
X49306200Y-39692885D02*
X49353819Y-39788123D01*
X49353819Y-39788123D02*
X49353819Y-39930980D01*
X48687152Y-39169075D02*
X49353819Y-39169075D01*
X48782390Y-39169075D02*
X48734771Y-39121456D01*
X48734771Y-39121456D02*
X48687152Y-39026218D01*
X48687152Y-39026218D02*
X48687152Y-38883361D01*
X48687152Y-38883361D02*
X48734771Y-38788123D01*
X48734771Y-38788123D02*
X48830009Y-38740504D01*
X48830009Y-38740504D02*
X49353819Y-38740504D01*
X48687152Y-38264313D02*
X49353819Y-38264313D01*
X48782390Y-38264313D02*
X48734771Y-38216694D01*
X48734771Y-38216694D02*
X48687152Y-38121456D01*
X48687152Y-38121456D02*
X48687152Y-37978599D01*
X48687152Y-37978599D02*
X48734771Y-37883361D01*
X48734771Y-37883361D02*
X48830009Y-37835742D01*
X48830009Y-37835742D02*
X49353819Y-37835742D01*
X49353819Y-36835742D02*
X49353819Y-37407170D01*
X49353819Y-37121456D02*
X48353819Y-37121456D01*
X48353819Y-37121456D02*
X48496676Y-37216694D01*
X48496676Y-37216694D02*
X48591914Y-37311932D01*
X48591914Y-37311932D02*
X48639533Y-37407170D01*
%TO.C,Conn3*%
X66548000Y-44958000D02*
X78486000Y-44958000D01*
X66548000Y-46863000D02*
X66548000Y-44958000D01*
X64008000Y-46863000D02*
X66548000Y-46863000D01*
X78486000Y-49403000D02*
X77978000Y-49403000D01*
X74168000Y-49403000D02*
X77978000Y-49403000D01*
X74168000Y-49403000D02*
X72898000Y-49403000D01*
X78486000Y-51943000D02*
X72898000Y-51943000D01*
X72898000Y-51943000D02*
X72898000Y-49403000D01*
X66548000Y-54483000D02*
X64008000Y-54483000D01*
X64008000Y-54483000D02*
X64008000Y-46863000D01*
X78486000Y-56388000D02*
X78486000Y-44958000D01*
X66548000Y-56388000D02*
X66548000Y-46863000D01*
X66548000Y-56388000D02*
X78486000Y-56388000D01*
D11*
%TO.C,C1*%
X62994000Y-52685733D02*
X62994000Y-52978267D01*
X61974000Y-52685733D02*
X61974000Y-52978267D01*
%TO.C,C2*%
X61974000Y-48660267D02*
X61974000Y-48367733D01*
X62994000Y-48660267D02*
X62994000Y-48367733D01*
%TO.C,U1*%
X56642000Y-48748000D02*
X53192000Y-48748000D01*
X56642000Y-48748000D02*
X58592000Y-48748000D01*
X56642000Y-53868000D02*
X54692000Y-53868000D01*
X56642000Y-53868000D02*
X58592000Y-53868000D01*
D10*
%TO.C,Conn1*%
X65786000Y-16484600D02*
X50038000Y-16484600D01*
X65786000Y-16510000D02*
X65786000Y-24257000D01*
X57937400Y-16510000D02*
X57937400Y-25400000D01*
X50038000Y-24231600D02*
X50038000Y-25400000D01*
X50038000Y-24257000D02*
X50038000Y-16510000D01*
X65786000Y-25400000D02*
X65786000Y-24180800D01*
X64643000Y-26543000D02*
X63474600Y-26543000D01*
X60198000Y-26543000D02*
X63474600Y-26543000D01*
X60198000Y-26543000D02*
X59055000Y-26543000D01*
X55626000Y-26543000D02*
X56769000Y-26543000D01*
X55626000Y-26543000D02*
X52324000Y-26543000D01*
X52349400Y-26543000D02*
X51181000Y-26543000D01*
X65786000Y-28803600D02*
X65786000Y-27711400D01*
X65786000Y-28829000D02*
X65786000Y-41122600D01*
X57912000Y-28829000D02*
X57912000Y-27686000D01*
X57912000Y-28829000D02*
X57912000Y-41122600D01*
X50038000Y-28829000D02*
X50038000Y-41122600D01*
X50038000Y-28854400D02*
X50038000Y-27660600D01*
X65786000Y-41122600D02*
X50038000Y-41122600D01*
X51155600Y-26543000D02*
G75*
G03*
X50038000Y-25425400I-1117598J2D01*
G01*
X65786000Y-25400000D02*
G75*
G03*
X64643000Y-26543000I0J-1143000D01*
G01*
X50038000Y-27660600D02*
G75*
G03*
X51155600Y-26543000I2J1117598D01*
G01*
X64643000Y-26543000D02*
G75*
G03*
X65786000Y-27686000I1143000J0D01*
G01*
X59055000Y-26543000D02*
G75*
G03*
X59055000Y-26543000I-1143000J0D01*
G01*
%TD*%
M02*
