%TF.GenerationSoftware,KiCad,Pcbnew,7.0.5*%
%TF.CreationDate,2023-10-04T22:19:23-05:00*%
%TF.ProjectId,Current Sensing Breakout,43757272-656e-4742-9053-656e73696e67,rev?*%
%TF.SameCoordinates,Original*%
%TF.FileFunction,Copper,L1,Top*%
%TF.FilePolarity,Positive*%
%FSLAX46Y46*%
G04 Gerber Fmt 4.6, Leading zero omitted, Abs format (unit mm)*
G04 Created by KiCad (PCBNEW 7.0.5) date 2023-10-04 22:19:23*
%MOMM*%
%LPD*%
G01*
G04 APERTURE LIST*
G04 Aperture macros list*
%AMRoundRect*
0 Rectangle with rounded corners*
0 $1 Rounding radius*
0 $2 $3 $4 $5 $6 $7 $8 $9 X,Y pos of 4 corners*
0 Add a 4 corners polygon primitive as box body*
4,1,4,$2,$3,$4,$5,$6,$7,$8,$9,$2,$3,0*
0 Add four circle primitives for the rounded corners*
1,1,$1+$1,$2,$3*
1,1,$1+$1,$4,$5*
1,1,$1+$1,$6,$7*
1,1,$1+$1,$8,$9*
0 Add four rect primitives between the rounded corners*
20,1,$1+$1,$2,$3,$4,$5,0*
20,1,$1+$1,$4,$5,$6,$7,0*
20,1,$1+$1,$6,$7,$8,$9,0*
20,1,$1+$1,$8,$9,$2,$3,0*%
G04 Aperture macros list end*
%TA.AperFunction,ComponentPad*%
%ADD10C,1.524000*%
%TD*%
%TA.AperFunction,SMDPad,CuDef*%
%ADD11RoundRect,0.237500X-0.237500X0.300000X-0.237500X-0.300000X0.237500X-0.300000X0.237500X0.300000X0*%
%TD*%
%TA.AperFunction,SMDPad,CuDef*%
%ADD12RoundRect,0.237500X0.237500X-0.300000X0.237500X0.300000X-0.237500X0.300000X-0.237500X-0.300000X0*%
%TD*%
%TA.AperFunction,SMDPad,CuDef*%
%ADD13RoundRect,0.150000X-0.825000X-0.150000X0.825000X-0.150000X0.825000X0.150000X-0.825000X0.150000X0*%
%TD*%
%TA.AperFunction,ComponentPad*%
%ADD14O,5.100000X3.000000*%
%TD*%
%TA.AperFunction,Conductor*%
%ADD15C,0.250000*%
%TD*%
G04 APERTURE END LIST*
D10*
%TO.P,Conn3,1*%
%TO.N,Net-(U1-VCC)*%
X65278000Y-48133000D03*
%TO.P,Conn3,2*%
%TO.N,GND*%
X65278000Y-50673000D03*
%TO.P,Conn3,3*%
%TO.N,Net-(U1-VIOUT)*%
X65278000Y-53213000D03*
%TD*%
D11*
%TO.P,C1,1*%
%TO.N,Net-(U1-FILTER)*%
X62484000Y-51969500D03*
%TO.P,C1,2*%
%TO.N,GND*%
X62484000Y-53694500D03*
%TD*%
D12*
%TO.P,C2,1*%
%TO.N,Net-(U1-VCC)*%
X62484000Y-49376500D03*
%TO.P,C2,2*%
%TO.N,GND*%
X62484000Y-47651500D03*
%TD*%
D13*
%TO.P,U1,1,IP+*%
%TO.N,Net-(Conn1D-PV+)*%
X54167000Y-49403000D03*
%TO.P,U1,2,IP+*%
X54167000Y-50673000D03*
%TO.P,U1,3,IP-*%
%TO.N,Net-(Conn2D-PV+)*%
X54167000Y-51943000D03*
%TO.P,U1,4,IP-*%
X54167000Y-53213000D03*
%TO.P,U1,5,GND*%
%TO.N,GND*%
X59117000Y-53213000D03*
%TO.P,U1,6,FILTER*%
%TO.N,Net-(U1-FILTER)*%
X59117000Y-51943000D03*
%TO.P,U1,7,VIOUT*%
%TO.N,Net-(U1-VIOUT)*%
X59117000Y-50673000D03*
%TO.P,U1,8,VCC*%
%TO.N,Net-(U1-VCC)*%
X59117000Y-49403000D03*
%TD*%
D14*
%TO.P,Conn1,1,GND*%
%TO.N,GND*%
X61849000Y-44704000D03*
%TO.P,Conn1,4,PV+*%
%TO.N,Net-(Conn1D-PV+)*%
X53975000Y-44704000D03*
%TD*%
%TO.P,Conn2,1,GND*%
%TO.N,GND*%
X61849000Y-56642000D03*
%TO.P,Conn2,4,PV+*%
%TO.N,Net-(Conn2D-PV+)*%
X53975000Y-56642000D03*
%TD*%
D15*
%TO.N,Net-(U1-FILTER)*%
X62457500Y-51943000D02*
X62484000Y-51969500D01*
X59117000Y-51943000D02*
X62457500Y-51943000D01*
%TO.N,Net-(U1-VCC)*%
X59117000Y-49403000D02*
X61976000Y-49403000D01*
X61976000Y-49403000D02*
X62457500Y-49403000D01*
X64008000Y-49403000D02*
X61976000Y-49403000D01*
X62457500Y-49403000D02*
X62484000Y-49376500D01*
X65278000Y-48133000D02*
X64008000Y-49403000D01*
%TO.N,Net-(U1-VIOUT)*%
X62738000Y-50673000D02*
X65278000Y-53213000D01*
X59117000Y-50673000D02*
X62738000Y-50673000D01*
%TD*%
%TA.AperFunction,Conductor*%
%TO.N,Net-(Conn1D-PV+)*%
G36*
X56839039Y-42945685D02*
G01*
X56884794Y-42998489D01*
X56896000Y-43050000D01*
X56896000Y-50930000D01*
X56876315Y-50997039D01*
X56823511Y-51042794D01*
X56772000Y-51054000D01*
X51178000Y-51054000D01*
X51110961Y-51034315D01*
X51065206Y-50981511D01*
X51054000Y-50930000D01*
X51054000Y-43050000D01*
X51073685Y-42982961D01*
X51126489Y-42937206D01*
X51178000Y-42926000D01*
X56772000Y-42926000D01*
X56839039Y-42945685D01*
G37*
%TD.AperFunction*%
%TD*%
%TA.AperFunction,Conductor*%
%TO.N,Net-(Conn2D-PV+)*%
G36*
X56839039Y-51581685D02*
G01*
X56884794Y-51634489D01*
X56896000Y-51686000D01*
X56896000Y-58296000D01*
X56876315Y-58363039D01*
X56823511Y-58408794D01*
X56772000Y-58420000D01*
X51178000Y-58420000D01*
X51110961Y-58400315D01*
X51065206Y-58347511D01*
X51054000Y-58296000D01*
X51054000Y-51686000D01*
X51073685Y-51618961D01*
X51126489Y-51573206D01*
X51178000Y-51562000D01*
X56772000Y-51562000D01*
X56839039Y-51581685D01*
G37*
%TD.AperFunction*%
%TD*%
%TA.AperFunction,Conductor*%
%TO.N,GND*%
G36*
X76142539Y-25420185D02*
G01*
X76188294Y-25472989D01*
X76199500Y-25524500D01*
X76199500Y-76075500D01*
X76179815Y-76142539D01*
X76127011Y-76188294D01*
X76075500Y-76199500D01*
X48384500Y-76199500D01*
X48317461Y-76179815D01*
X48271706Y-76127011D01*
X48260500Y-76075500D01*
X48260500Y-58296000D01*
X50548500Y-58296000D01*
X50548501Y-58296009D01*
X50560052Y-58403450D01*
X50560054Y-58403462D01*
X50571260Y-58454972D01*
X50605383Y-58557497D01*
X50605386Y-58557503D01*
X50683171Y-58678537D01*
X50683179Y-58678548D01*
X50728923Y-58731340D01*
X50728926Y-58731343D01*
X50728930Y-58731347D01*
X50837664Y-58825567D01*
X50837667Y-58825568D01*
X50837668Y-58825569D01*
X50968536Y-58885336D01*
X50968537Y-58885336D01*
X50968541Y-58885338D01*
X51035580Y-58905023D01*
X51035584Y-58905024D01*
X51178000Y-58925500D01*
X51178003Y-58925500D01*
X56771990Y-58925500D01*
X56772000Y-58925500D01*
X56879456Y-58913947D01*
X56930967Y-58902741D01*
X56965197Y-58891347D01*
X57033497Y-58868616D01*
X57033501Y-58868613D01*
X57033504Y-58868613D01*
X57154543Y-58790825D01*
X57207347Y-58745070D01*
X57301567Y-58636336D01*
X57361338Y-58505459D01*
X57381023Y-58438420D01*
X57381024Y-58438416D01*
X57401500Y-58296000D01*
X57401500Y-54483001D01*
X71933454Y-54483001D01*
X71953613Y-54764866D01*
X72013678Y-55040977D01*
X72013680Y-55040984D01*
X72074993Y-55205372D01*
X72112432Y-55305750D01*
X72112434Y-55305754D01*
X72247855Y-55553758D01*
X72247860Y-55553766D01*
X72417196Y-55779974D01*
X72417212Y-55779992D01*
X72617007Y-55979787D01*
X72617025Y-55979803D01*
X72843233Y-56149139D01*
X72843241Y-56149144D01*
X73091245Y-56284565D01*
X73091249Y-56284567D01*
X73091251Y-56284568D01*
X73356016Y-56383320D01*
X73494077Y-56413353D01*
X73632133Y-56443386D01*
X73632135Y-56443386D01*
X73632139Y-56443387D01*
X73843447Y-56458500D01*
X73984553Y-56458500D01*
X74195861Y-56443387D01*
X74471984Y-56383320D01*
X74736749Y-56284568D01*
X74984764Y-56149141D01*
X75210982Y-55979797D01*
X75410797Y-55779982D01*
X75580141Y-55553764D01*
X75715568Y-55305749D01*
X75814320Y-55040984D01*
X75874387Y-54764861D01*
X75894546Y-54483000D01*
X75892977Y-54461069D01*
X75882211Y-54310531D01*
X75874387Y-54201139D01*
X75870621Y-54183829D01*
X75814321Y-53925022D01*
X75814320Y-53925016D01*
X75715568Y-53660251D01*
X75708029Y-53646445D01*
X75580144Y-53412241D01*
X75580139Y-53412233D01*
X75410803Y-53186025D01*
X75410787Y-53186007D01*
X75210992Y-52986212D01*
X75210974Y-52986196D01*
X74984766Y-52816860D01*
X74984758Y-52816855D01*
X74736754Y-52681434D01*
X74736750Y-52681432D01*
X74591891Y-52627403D01*
X74471984Y-52582680D01*
X74471980Y-52582679D01*
X74471977Y-52582678D01*
X74195866Y-52522613D01*
X73984555Y-52507500D01*
X73984553Y-52507500D01*
X73843447Y-52507500D01*
X73843444Y-52507500D01*
X73632133Y-52522613D01*
X73356022Y-52582678D01*
X73356017Y-52582679D01*
X73356016Y-52582680D01*
X73296659Y-52604819D01*
X73091249Y-52681432D01*
X73091245Y-52681434D01*
X72843241Y-52816855D01*
X72843233Y-52816860D01*
X72617025Y-52986196D01*
X72617007Y-52986212D01*
X72417212Y-53186007D01*
X72417196Y-53186025D01*
X72247860Y-53412233D01*
X72247855Y-53412241D01*
X72112434Y-53660245D01*
X72112432Y-53660249D01*
X72013678Y-53925022D01*
X71953613Y-54201133D01*
X71933454Y-54482998D01*
X71933454Y-54483001D01*
X57401500Y-54483001D01*
X57401500Y-52230764D01*
X57421185Y-52163725D01*
X57473989Y-52117970D01*
X57543147Y-52108026D01*
X57606703Y-52137051D01*
X57644477Y-52195829D01*
X57644576Y-52196169D01*
X57690254Y-52353393D01*
X57690255Y-52353396D01*
X57773917Y-52494862D01*
X57773923Y-52494870D01*
X57890129Y-52611076D01*
X57890133Y-52611079D01*
X57890135Y-52611081D01*
X58031602Y-52694744D01*
X58073224Y-52706836D01*
X58189426Y-52740597D01*
X58189429Y-52740597D01*
X58189431Y-52740598D01*
X58226306Y-52743500D01*
X58226314Y-52743500D01*
X60007686Y-52743500D01*
X60007694Y-52743500D01*
X60044569Y-52740598D01*
X60044571Y-52740597D01*
X60044573Y-52740597D01*
X60086191Y-52728505D01*
X60202398Y-52694744D01*
X60343865Y-52611081D01*
X60343869Y-52611076D01*
X60350128Y-52604819D01*
X60411451Y-52571334D01*
X60437809Y-52568500D01*
X61494623Y-52568500D01*
X61561662Y-52588185D01*
X61600161Y-52627402D01*
X61663660Y-52730350D01*
X61785650Y-52852340D01*
X61932484Y-52942908D01*
X62096247Y-52997174D01*
X62197323Y-53007500D01*
X62770676Y-53007499D01*
X62770684Y-53007498D01*
X62770687Y-53007498D01*
X62826030Y-53001844D01*
X62871753Y-52997174D01*
X63035516Y-52942908D01*
X63182350Y-52852340D01*
X63304340Y-52730350D01*
X63394908Y-52583516D01*
X63423520Y-52497171D01*
X63463290Y-52439729D01*
X63527805Y-52412905D01*
X63596581Y-52425220D01*
X63628905Y-52448496D01*
X64009613Y-52829204D01*
X64043098Y-52890527D01*
X64041707Y-52948977D01*
X64029931Y-52992926D01*
X64029931Y-52992929D01*
X64029930Y-52992932D01*
X64025116Y-53047948D01*
X64010677Y-53212997D01*
X64010677Y-53213002D01*
X64029929Y-53433062D01*
X64029930Y-53433070D01*
X64087104Y-53646445D01*
X64087105Y-53646447D01*
X64087106Y-53646450D01*
X64180465Y-53846661D01*
X64180466Y-53846662D01*
X64180468Y-53846666D01*
X64307170Y-54027615D01*
X64307175Y-54027621D01*
X64463378Y-54183824D01*
X64463384Y-54183829D01*
X64644333Y-54310531D01*
X64644335Y-54310532D01*
X64644338Y-54310534D01*
X64844550Y-54403894D01*
X65057932Y-54461070D01*
X65215123Y-54474822D01*
X65277998Y-54480323D01*
X65278000Y-54480323D01*
X65278002Y-54480323D01*
X65333017Y-54475509D01*
X65498068Y-54461070D01*
X65711450Y-54403894D01*
X65911662Y-54310534D01*
X66092620Y-54183826D01*
X66248826Y-54027620D01*
X66375534Y-53846662D01*
X66468894Y-53646450D01*
X66526070Y-53433068D01*
X66545323Y-53213000D01*
X66542962Y-53186018D01*
X66538103Y-53130474D01*
X66526070Y-52992932D01*
X66468894Y-52779550D01*
X66375534Y-52579339D01*
X66277779Y-52439729D01*
X66248827Y-52398381D01*
X66203839Y-52353393D01*
X66092620Y-52242174D01*
X66092616Y-52242171D01*
X66092615Y-52242170D01*
X65911666Y-52115468D01*
X65911662Y-52115466D01*
X65895707Y-52108026D01*
X65711450Y-52022106D01*
X65711447Y-52022105D01*
X65711445Y-52022104D01*
X65498070Y-51964930D01*
X65498062Y-51964929D01*
X65278002Y-51945677D01*
X65277998Y-51945677D01*
X65131288Y-51958512D01*
X65057932Y-51964930D01*
X65057930Y-51964930D01*
X65057926Y-51964931D01*
X65013977Y-51976707D01*
X64944127Y-51975044D01*
X64894204Y-51944613D01*
X63283321Y-50333730D01*
X63249836Y-50272407D01*
X63254820Y-50202715D01*
X63283320Y-50158369D01*
X63304340Y-50137350D01*
X63335148Y-50087402D01*
X63387095Y-50040679D01*
X63440686Y-50028500D01*
X63925257Y-50028500D01*
X63940877Y-50030224D01*
X63940904Y-50029939D01*
X63948666Y-50030673D01*
X63948666Y-50030672D01*
X63948667Y-50030673D01*
X63951999Y-50030568D01*
X64016847Y-50028531D01*
X64018794Y-50028500D01*
X64047347Y-50028500D01*
X64047350Y-50028500D01*
X64054228Y-50027630D01*
X64060041Y-50027172D01*
X64106627Y-50025709D01*
X64125869Y-50020117D01*
X64144912Y-50016174D01*
X64164792Y-50013664D01*
X64208122Y-49996507D01*
X64213646Y-49994617D01*
X64217396Y-49993527D01*
X64258390Y-49981618D01*
X64275629Y-49971422D01*
X64293103Y-49962862D01*
X64311727Y-49955488D01*
X64311727Y-49955487D01*
X64311732Y-49955486D01*
X64349449Y-49928082D01*
X64354305Y-49924892D01*
X64394420Y-49901170D01*
X64408589Y-49886999D01*
X64423379Y-49874368D01*
X64439587Y-49862594D01*
X64469299Y-49826676D01*
X64473212Y-49822376D01*
X64894204Y-49401384D01*
X64955526Y-49367901D01*
X65013976Y-49369291D01*
X65057932Y-49381070D01*
X65215123Y-49394822D01*
X65277998Y-49400323D01*
X65278000Y-49400323D01*
X65278002Y-49400323D01*
X65333017Y-49395509D01*
X65498068Y-49381070D01*
X65711450Y-49323894D01*
X65911662Y-49230534D01*
X66092620Y-49103826D01*
X66248826Y-48947620D01*
X66375534Y-48766662D01*
X66468894Y-48566450D01*
X66526070Y-48353068D01*
X66542962Y-48159992D01*
X66545323Y-48133002D01*
X66545323Y-48132997D01*
X66538103Y-48050474D01*
X66526070Y-47912932D01*
X66468894Y-47699550D01*
X66375534Y-47499339D01*
X66248826Y-47318380D01*
X66092620Y-47162174D01*
X66092616Y-47162171D01*
X66092615Y-47162170D01*
X65911666Y-47035468D01*
X65911662Y-47035466D01*
X65911660Y-47035465D01*
X65711450Y-46942106D01*
X65711447Y-46942105D01*
X65711445Y-46942104D01*
X65498070Y-46884930D01*
X65498062Y-46884929D01*
X65278002Y-46865677D01*
X65277998Y-46865677D01*
X65057937Y-46884929D01*
X65057929Y-46884930D01*
X64844554Y-46942104D01*
X64844548Y-46942107D01*
X64644340Y-47035465D01*
X64644338Y-47035466D01*
X64463377Y-47162175D01*
X64307175Y-47318377D01*
X64180466Y-47499338D01*
X64180465Y-47499340D01*
X64087107Y-47699548D01*
X64087104Y-47699554D01*
X64029930Y-47912929D01*
X64029929Y-47912937D01*
X64010677Y-48132997D01*
X64010677Y-48133002D01*
X64013038Y-48159992D01*
X64029930Y-48353068D01*
X64031730Y-48359787D01*
X64041707Y-48397019D01*
X64040044Y-48466869D01*
X64009613Y-48516794D01*
X63785226Y-48741182D01*
X63723906Y-48774666D01*
X63697547Y-48777500D01*
X63473377Y-48777500D01*
X63406338Y-48757815D01*
X63367838Y-48718597D01*
X63304340Y-48615650D01*
X63182350Y-48493660D01*
X63035516Y-48403092D01*
X62871753Y-48348826D01*
X62871751Y-48348825D01*
X62770678Y-48338500D01*
X62197330Y-48338500D01*
X62197312Y-48338501D01*
X62096247Y-48348825D01*
X61932484Y-48403092D01*
X61932481Y-48403093D01*
X61785648Y-48493661D01*
X61663661Y-48615648D01*
X61600162Y-48718597D01*
X61548214Y-48765322D01*
X61494623Y-48777500D01*
X60437809Y-48777500D01*
X60370770Y-48757815D01*
X60350128Y-48741181D01*
X60343870Y-48734923D01*
X60343862Y-48734917D01*
X60202396Y-48651255D01*
X60202393Y-48651254D01*
X60044573Y-48605402D01*
X60044567Y-48605401D01*
X60007701Y-48602500D01*
X60007694Y-48602500D01*
X58226306Y-48602500D01*
X58226298Y-48602500D01*
X58189432Y-48605401D01*
X58189426Y-48605402D01*
X58031606Y-48651254D01*
X58031603Y-48651255D01*
X57890137Y-48734917D01*
X57890129Y-48734923D01*
X57773923Y-48851129D01*
X57773917Y-48851137D01*
X57690255Y-48992603D01*
X57690254Y-48992606D01*
X57644576Y-49149830D01*
X57606970Y-49208716D01*
X57543497Y-49237922D01*
X57474311Y-49228176D01*
X57421376Y-49182572D01*
X57401501Y-49115589D01*
X57401500Y-49115235D01*
X57401500Y-46863001D01*
X71933454Y-46863001D01*
X71953613Y-47144866D01*
X72013678Y-47420977D01*
X72013680Y-47420984D01*
X72074993Y-47585372D01*
X72112432Y-47685750D01*
X72112434Y-47685754D01*
X72247855Y-47933758D01*
X72247860Y-47933766D01*
X72417196Y-48159974D01*
X72417212Y-48159992D01*
X72617007Y-48359787D01*
X72617025Y-48359803D01*
X72843233Y-48529139D01*
X72843241Y-48529144D01*
X73091245Y-48664565D01*
X73091249Y-48664567D01*
X73091251Y-48664568D01*
X73356016Y-48763320D01*
X73494077Y-48793353D01*
X73632133Y-48823386D01*
X73632135Y-48823386D01*
X73632139Y-48823387D01*
X73843447Y-48838500D01*
X73984553Y-48838500D01*
X74195861Y-48823387D01*
X74471984Y-48763320D01*
X74736749Y-48664568D01*
X74984764Y-48529141D01*
X75210982Y-48359797D01*
X75410797Y-48159982D01*
X75580141Y-47933764D01*
X75715568Y-47685749D01*
X75814320Y-47420984D01*
X75874387Y-47144861D01*
X75894546Y-46863000D01*
X75874387Y-46581139D01*
X75814320Y-46305016D01*
X75715568Y-46040251D01*
X75580141Y-45792236D01*
X75580139Y-45792233D01*
X75410803Y-45566025D01*
X75410787Y-45566007D01*
X75210992Y-45366212D01*
X75210974Y-45366196D01*
X74984766Y-45196860D01*
X74984758Y-45196855D01*
X74736754Y-45061434D01*
X74736750Y-45061432D01*
X74636372Y-45023993D01*
X74471984Y-44962680D01*
X74471980Y-44962679D01*
X74471977Y-44962678D01*
X74195866Y-44902613D01*
X73984555Y-44887500D01*
X73984553Y-44887500D01*
X73843447Y-44887500D01*
X73843444Y-44887500D01*
X73632133Y-44902613D01*
X73356022Y-44962678D01*
X73356017Y-44962679D01*
X73356016Y-44962680D01*
X73292003Y-44986555D01*
X73091249Y-45061432D01*
X73091245Y-45061434D01*
X72843241Y-45196855D01*
X72843233Y-45196860D01*
X72617025Y-45366196D01*
X72617007Y-45366212D01*
X72417212Y-45566007D01*
X72417196Y-45566025D01*
X72247860Y-45792233D01*
X72247855Y-45792241D01*
X72112434Y-46040245D01*
X72112432Y-46040249D01*
X72013678Y-46305022D01*
X71953613Y-46581133D01*
X71933454Y-46862998D01*
X71933454Y-46863001D01*
X57401500Y-46863001D01*
X57401500Y-43050009D01*
X57401500Y-43050000D01*
X57389947Y-42942544D01*
X57378741Y-42891033D01*
X57378637Y-42890722D01*
X57344616Y-42788502D01*
X57344613Y-42788496D01*
X57266828Y-42667462D01*
X57266825Y-42667457D01*
X57266820Y-42667451D01*
X57221076Y-42614659D01*
X57221072Y-42614656D01*
X57221070Y-42614653D01*
X57112336Y-42520433D01*
X57112333Y-42520431D01*
X57112331Y-42520430D01*
X56981463Y-42460663D01*
X56922195Y-42443260D01*
X56914420Y-42440977D01*
X56914416Y-42440976D01*
X56772000Y-42420500D01*
X51178000Y-42420500D01*
X51177991Y-42420500D01*
X51177990Y-42420501D01*
X51070549Y-42432052D01*
X51070537Y-42432054D01*
X51019027Y-42443260D01*
X50916502Y-42477383D01*
X50916496Y-42477386D01*
X50795462Y-42555171D01*
X50795451Y-42555179D01*
X50742659Y-42600923D01*
X50648433Y-42709664D01*
X50648430Y-42709668D01*
X50588663Y-42840536D01*
X50573836Y-42891033D01*
X50568977Y-42907580D01*
X50568976Y-42907584D01*
X50548500Y-43050000D01*
X50548500Y-50930000D01*
X50548501Y-50930009D01*
X50560052Y-51037450D01*
X50560054Y-51037462D01*
X50571260Y-51088972D01*
X50605384Y-51191500D01*
X50605387Y-51191504D01*
X50632008Y-51232927D01*
X50635100Y-51237737D01*
X50654785Y-51304777D01*
X50643579Y-51356290D01*
X50588663Y-51476536D01*
X50572200Y-51532603D01*
X50568977Y-51543580D01*
X50568976Y-51543584D01*
X50548500Y-51686000D01*
X50548500Y-58296000D01*
X48260500Y-58296000D01*
X48260500Y-25524500D01*
X48280185Y-25457461D01*
X48332989Y-25411706D01*
X48384500Y-25400500D01*
X76075500Y-25400500D01*
X76142539Y-25420185D01*
G37*
%TD.AperFunction*%
%TD*%
M02*
